<mxfile host="Electron" agent="Mozilla/5.0 (X11; Linux x86_64) AppleWebKit/537.36 (KHTML, like Gecko) draw.io/26.0.4 Chrome/128.0.6613.186 Electron/32.2.5 Safari/537.36" version="26.0.4">
  <diagram name="Seite-1" id="lU60xoOcKAvXIMSSwpLU">
    <mxGraphModel dx="1434" dy="2037" grid="1" gridSize="10" guides="1" tooltips="1" connect="1" arrows="1" fold="1" page="1" pageScale="1" pageWidth="827" pageHeight="1169" math="0" shadow="0">
      <root>
        <mxCell id="0" />
        <mxCell id="1" parent="0" />
        <mxCell id="BsCoyGj23AVwOFwc4kzw-1" value="" style="rounded=0;whiteSpace=wrap;html=1;strokeColor=none;" vertex="1" parent="1">
          <mxGeometry x="540" y="236" width="80" height="25" as="geometry" />
        </mxCell>
        <mxCell id="8xZp15SE3o2XMsSNhryC-20" value="VLAN: WLAN" style="rounded=1;whiteSpace=wrap;html=1;fillColor=#ffe6cc;strokeColor=#d79b00;verticalAlign=top;fontStyle=1;spacingLeft=-7;labelPosition=center;verticalLabelPosition=middle;align=center;" parent="1" vertex="1">
          <mxGeometry x="331" y="-14" width="220" height="250" as="geometry" />
        </mxCell>
        <mxCell id="8xZp15SE3o2XMsSNhryC-13" value="VLAN: Office" style="rounded=1;whiteSpace=wrap;html=1;fillColor=#e1d5e7;strokeColor=#9673a6;verticalAlign=bottom;fontStyle=1;spacingLeft=-7;labelPosition=center;verticalLabelPosition=middle;align=center;" parent="1" vertex="1">
          <mxGeometry x="330" y="266" width="220" height="250" as="geometry" />
        </mxCell>
        <mxCell id="8xZp15SE3o2XMsSNhryC-3" value="fiber" style="edgeStyle=orthogonalEdgeStyle;rounded=0;orthogonalLoop=1;jettySize=auto;html=1;entryX=0;entryY=0.5;entryDx=0;entryDy=0;endArrow=none;startFill=0;strokeColor=#B3FF66;strokeWidth=4;" parent="1" source="8xZp15SE3o2XMsSNhryC-1" edge="1">
          <mxGeometry relative="1" as="geometry">
            <mxPoint x="250" y="250" as="targetPoint" />
          </mxGeometry>
        </mxCell>
        <mxCell id="8xZp15SE3o2XMsSNhryC-1" value="Internet" style="ellipse;shape=cloud;whiteSpace=wrap;html=1;" parent="1" vertex="1">
          <mxGeometry x="40" y="210" width="120" height="80" as="geometry" />
        </mxCell>
        <mxCell id="8xZp15SE3o2XMsSNhryC-7" style="edgeStyle=orthogonalEdgeStyle;rounded=0;orthogonalLoop=1;jettySize=auto;html=1;endArrow=none;startFill=0;strokeColor=#B3FF66;strokeWidth=4;" parent="1" target="8xZp15SE3o2XMsSNhryC-6" edge="1">
          <mxGeometry relative="1" as="geometry">
            <mxPoint x="300" y="250" as="sourcePoint" />
          </mxGeometry>
        </mxCell>
        <mxCell id="8xZp15SE3o2XMsSNhryC-10" style="edgeStyle=orthogonalEdgeStyle;rounded=0;orthogonalLoop=1;jettySize=auto;html=1;endArrow=none;startFill=0;" parent="1" source="8xZp15SE3o2XMsSNhryC-6" target="8xZp15SE3o2XMsSNhryC-9" edge="1">
          <mxGeometry relative="1" as="geometry" />
        </mxCell>
        <mxCell id="8xZp15SE3o2XMsSNhryC-12" style="edgeStyle=orthogonalEdgeStyle;rounded=0;orthogonalLoop=1;jettySize=auto;html=1;endArrow=none;startFill=0;fillColor=#76608a;strokeColor=#432D57;strokeWidth=3;" parent="1" source="8xZp15SE3o2XMsSNhryC-6" target="8xZp15SE3o2XMsSNhryC-11" edge="1">
          <mxGeometry relative="1" as="geometry" />
        </mxCell>
        <mxCell id="8xZp15SE3o2XMsSNhryC-6" value="Managed Switch" style="sketch=0;points=[[0.015,0.015,0],[0.985,0.015,0],[0.985,0.985,0],[0.015,0.985,0],[0.25,0,0],[0.5,0,0],[0.75,0,0],[1,0.25,0],[1,0.5,0],[1,0.75,0],[0.75,1,0],[0.5,1,0],[0.25,1,0],[0,0.75,0],[0,0.5,0],[0,0.25,0]];verticalLabelPosition=bottom;html=1;verticalAlign=top;aspect=fixed;align=left;pointerEvents=1;shape=mxgraph.cisco19.rect;prIcon=l2_switch;fillColor=#FAFAFA;strokeColor=#005073;labelPosition=right;spacing=0;spacingRight=0;spacingLeft=-9;" parent="1" vertex="1">
          <mxGeometry x="370" y="225" width="50" height="50" as="geometry" />
        </mxCell>
        <mxCell id="8xZp15SE3o2XMsSNhryC-8" value="Home Router" style="sketch=0;points=[[0.5,0,0],[1,0.5,0],[0.5,1,0],[0,0.5,0],[0.145,0.145,0],[0.8555,0.145,0],[0.855,0.8555,0],[0.145,0.855,0]];verticalLabelPosition=bottom;html=1;verticalAlign=top;aspect=fixed;align=center;pointerEvents=1;shape=mxgraph.cisco19.rect;prIcon=router;fillColor=#FAFAFA;strokeColor=#005073;" parent="1" vertex="1">
          <mxGeometry x="250" y="225" width="50" height="50" as="geometry" />
        </mxCell>
        <mxCell id="8xZp15SE3o2XMsSNhryC-9" value="Raspberry Pi" style="sketch=0;points=[[0.5,0,0],[1,0.5,0],[0.5,1,0],[0,0.5,0],[0.145,0.145,0],[0.8555,0.145,0],[0.855,0.8555,0],[0.145,0.855,0]];verticalLabelPosition=middle;html=1;verticalAlign=middle;aspect=fixed;align=left;pointerEvents=1;shape=mxgraph.cisco19.rect;prIcon=router;fillColor=#FAFAFA;strokeColor=#005073;labelPosition=right;spacing=5;" parent="1" vertex="1">
          <mxGeometry x="490" y="225" width="50" height="50" as="geometry" />
        </mxCell>
        <mxCell id="8xZp15SE3o2XMsSNhryC-11" value="Office PC" style="fontColor=#0066CC;verticalAlign=top;verticalLabelPosition=bottom;labelPosition=center;align=center;html=1;outlineConnect=0;fillColor=#CCCCCC;strokeColor=#6881B3;gradientColor=none;gradientDirection=north;strokeWidth=2;shape=mxgraph.networks.pc;" parent="1" vertex="1">
          <mxGeometry x="345" y="380" width="100" height="70" as="geometry" />
        </mxCell>
        <mxCell id="8xZp15SE3o2XMsSNhryC-14" value="Wireless AP" style="points=[[0.03,0.36,0],[0.18,0,0],[0.5,0.34,0],[0.82,0,0],[0.97,0.36,0],[1,0.67,0],[0.975,0.975,0],[0.5,1,0],[0.025,0.975,0],[0,0.67,0]];verticalLabelPosition=top;sketch=0;html=1;verticalAlign=bottom;aspect=fixed;align=center;pointerEvents=1;shape=mxgraph.cisco19.wireless_access_point;fillColor=#005073;strokeColor=none;labelPosition=center;" parent="1" vertex="1">
          <mxGeometry x="370" y="70" width="50" height="50" as="geometry" />
        </mxCell>
        <mxCell id="8xZp15SE3o2XMsSNhryC-15" style="edgeStyle=orthogonalEdgeStyle;rounded=0;orthogonalLoop=1;jettySize=auto;html=1;entryX=0.5;entryY=0;entryDx=0;entryDy=0;entryPerimeter=0;endArrow=none;startFill=0;strokeWidth=3;fillColor=#f0a30a;strokeColor=#BD7000;" parent="1" source="8xZp15SE3o2XMsSNhryC-14" target="8xZp15SE3o2XMsSNhryC-6" edge="1">
          <mxGeometry relative="1" as="geometry" />
        </mxCell>
        <mxCell id="8xZp15SE3o2XMsSNhryC-16" value="" style="sketch=0;pointerEvents=1;shadow=0;dashed=0;html=1;strokeColor=none;fillColor=#505050;labelPosition=center;verticalLabelPosition=bottom;verticalAlign=top;outlineConnect=0;align=center;shape=mxgraph.office.devices.laptop;" parent="1" vertex="1">
          <mxGeometry x="470" y="36" width="58" height="34" as="geometry" />
        </mxCell>
        <mxCell id="8xZp15SE3o2XMsSNhryC-17" value="" style="html=1;verticalLabelPosition=bottom;align=center;labelBackgroundColor=#ffffff;verticalAlign=top;strokeWidth=2;strokeColor=#0080F0;shadow=0;dashed=0;shape=mxgraph.ios7.icons.smartphone;" parent="1" vertex="1">
          <mxGeometry x="472" y="120" width="18" height="30" as="geometry" />
        </mxCell>
        <mxCell id="8xZp15SE3o2XMsSNhryC-18" value="" style="html=1;verticalLabelPosition=bottom;align=center;labelBackgroundColor=#ffffff;verticalAlign=top;strokeWidth=2;strokeColor=#0080F0;shadow=0;dashed=0;shape=mxgraph.ios7.icons.smartphone;" parent="1" vertex="1">
          <mxGeometry x="506" y="90" width="18" height="30" as="geometry" />
        </mxCell>
        <mxCell id="8xZp15SE3o2XMsSNhryC-19" value="" style="sketch=0;aspect=fixed;pointerEvents=1;shadow=0;dashed=0;html=1;strokeColor=none;labelPosition=center;verticalLabelPosition=bottom;verticalAlign=top;align=center;fillColor=#00188D;shape=mxgraph.mscae.enterprise.wireless_connection" parent="1" vertex="1">
          <mxGeometry x="428" y="70" width="42" height="50" as="geometry" />
        </mxCell>
        <mxCell id="h32fmBBYmitSCTcsOdk4-1" value="VLAN VM" style="verticalLabelPosition=top;html=1;verticalAlign=bottom;align=center;strokeColor=none;fillColor=#00BEF2;shape=mxgraph.azure.virtual_machine;fontColor=light-dark(#fafaff, #ededed);labelPosition=center;spacing=0;spacingTop=0;spacingBottom=-14;" parent="1" vertex="1">
          <mxGeometry x="410" y="340" width="90" height="71" as="geometry" />
        </mxCell>
        <mxCell id="h32fmBBYmitSCTcsOdk4-2" style="edgeStyle=orthogonalEdgeStyle;rounded=0;orthogonalLoop=1;jettySize=auto;html=1;entryX=0.986;entryY=0.425;entryDx=0;entryDy=0;entryPerimeter=0;endArrow=none;startFill=0;strokeWidth=3;fillColor=#f0a30a;strokeColor=#BD7000;exitX=0.011;exitY=0.428;exitDx=0;exitDy=0;exitPerimeter=0;" parent="1" source="8xZp15SE3o2XMsSNhryC-9" target="8xZp15SE3o2XMsSNhryC-6" edge="1">
          <mxGeometry relative="1" as="geometry">
            <mxPoint x="405" y="130" as="sourcePoint" />
            <mxPoint x="405" y="235" as="targetPoint" />
          </mxGeometry>
        </mxCell>
        <mxCell id="h32fmBBYmitSCTcsOdk4-3" style="edgeStyle=orthogonalEdgeStyle;rounded=0;orthogonalLoop=1;jettySize=auto;html=1;entryX=0.986;entryY=0.425;entryDx=0;entryDy=0;entryPerimeter=0;endArrow=none;startFill=0;strokeWidth=3;fillColor=#76608a;strokeColor=#432D57;exitX=0.011;exitY=0.428;exitDx=0;exitDy=0;exitPerimeter=0;" parent="1" edge="1">
          <mxGeometry relative="1" as="geometry">
            <mxPoint x="491" y="253" as="sourcePoint" />
            <mxPoint x="419" y="253" as="targetPoint" />
          </mxGeometry>
        </mxCell>
        <mxCell id="h32fmBBYmitSCTcsOdk4-4" style="edgeStyle=orthogonalEdgeStyle;rounded=0;orthogonalLoop=1;jettySize=auto;html=1;entryX=0.986;entryY=0.425;entryDx=0;entryDy=0;entryPerimeter=0;endArrow=none;startFill=0;strokeWidth=3;fillColor=#0050ef;strokeColor=#001DBC;exitX=0.011;exitY=0.428;exitDx=0;exitDy=0;exitPerimeter=0;" parent="1" edge="1">
          <mxGeometry relative="1" as="geometry">
            <mxPoint x="492" y="257" as="sourcePoint" />
            <mxPoint x="420" y="257" as="targetPoint" />
          </mxGeometry>
        </mxCell>
        <mxCell id="h32fmBBYmitSCTcsOdk4-5" style="edgeStyle=orthogonalEdgeStyle;rounded=0;orthogonalLoop=1;jettySize=auto;html=1;entryX=0.626;entryY=1.032;entryDx=0;entryDy=0;entryPerimeter=0;endArrow=none;startFill=0;strokeWidth=3;fillColor=#0050ef;strokeColor=#001DBC;exitX=0.55;exitY=0;exitDx=0;exitDy=0;exitPerimeter=0;" parent="1" edge="1">
          <mxGeometry relative="1" as="geometry">
            <mxPoint x="400" y="378" as="sourcePoint" />
            <mxPoint x="401.29999999999995" y="274.60000000000036" as="targetPoint" />
            <Array as="points">
              <mxPoint x="401" y="378" />
              <mxPoint x="401" y="326" />
            </Array>
          </mxGeometry>
        </mxCell>
        <mxCell id="h32fmBBYmitSCTcsOdk4-6" style="edgeStyle=orthogonalEdgeStyle;rounded=0;orthogonalLoop=1;jettySize=auto;html=1;entryX=1;entryY=0.5;entryDx=0;entryDy=0;entryPerimeter=0;fillColor=#0050ef;strokeColor=#001DBC;strokeWidth=2;" parent="1" source="8xZp15SE3o2XMsSNhryC-11" target="h32fmBBYmitSCTcsOdk4-1" edge="1">
          <mxGeometry relative="1" as="geometry">
            <Array as="points">
              <mxPoint x="520" y="430" />
              <mxPoint x="520" y="376" />
            </Array>
          </mxGeometry>
        </mxCell>
      </root>
    </mxGraphModel>
  </diagram>
</mxfile>
